<?xml version="1.0" encoding="utf-8"?>
<!-- Generator: Adobe Illustrator 15.0.0, SVG Export Plug-In . SVG Version: 6.00 Build 0)  -->
<!DOCTYPE svg PUBLIC "-//W3C//DTD SVG 1.1//EN" "http://www.w3.org/Graphics/SVG/1.1/DTD/svg11.dtd">
<svg version="1.1" fill="#ffffff" xmlns="http://www.w3.org/2000/svg" xmlns:xlink="http://www.w3.org/1999/xlink" x="0px" y="0px"
	 width="22.031px" height="12px" viewBox="0.984 6 22.031 12" enable-background="new 0.984 6 22.031 12" xml:space="preserve">
<g>
	<path d="M19.992,6.797c0.922,0.532,1.656,1.259,2.203,2.18c0.547,0.922,0.82,1.93,0.82,3.023c0,1.095-0.273,2.103-0.82,3.023
		c-0.547,0.922-1.281,1.648-2.203,2.18C19.07,17.735,18.078,18,17.016,18H6.984c-1.063,0-2.055-0.265-2.977-0.797
		c-0.922-0.531-1.657-1.258-2.203-2.18c-0.547-0.921-0.82-1.929-0.82-3.023c0-1.094,0.273-2.102,0.82-3.023
		c0.546-0.921,1.281-1.647,2.203-2.18C4.929,6.266,5.921,6,6.984,6h10.031C18.078,6,19.07,6.266,19.992,6.797z M19.828,14.813
		C20.609,14.032,21,13.095,21,12c0-1.094-0.391-2.031-1.172-2.813c-0.781-0.78-1.719-1.172-2.813-1.172H6.984
		c-1.094,0-2.032,0.392-2.813,1.172C3.39,9.969,3,10.906,3,12c0,1.095,0.39,2.032,1.172,2.813c0.781,0.781,1.718,1.172,2.813,1.172
		h10.031C18.109,15.984,19.047,15.594,19.828,14.813z M19.125,9.867c0.594,0.579,0.891,1.289,0.891,2.133s-0.297,1.555-0.891,2.133
		C18.531,14.712,17.82,15,16.992,15s-1.531-0.288-2.109-0.867c-0.578-0.578-0.867-1.289-0.867-2.133s0.289-1.554,0.867-2.133
		C15.461,9.289,16.172,9,17.016,9C17.828,9,18.531,9.289,19.125,9.867z"/>
</g>
</svg>
