<?xml version="1.0" encoding="utf-8"?>
<!-- Generator: Adobe Illustrator 15.0.0, SVG Export Plug-In . SVG Version: 6.00 Build 0)  -->
<!DOCTYPE svg PUBLIC "-//W3C//DTD SVG 1.1//EN" "http://www.w3.org/Graphics/SVG/1.1/DTD/svg11.dtd">
<svg version="1.1" xmlns="http://www.w3.org/2000/svg" xmlns:xlink="http://www.w3.org/1999/xlink" x="0px" y="0px"
	 width="16.032px" height="22.031px" viewBox="3.957 0.984 16.032 22.031" enable-background="new 3.957 0.984 16.032 22.031"
	 xml:space="preserve">
<path d="M8.949,6.797c-0.923,0.532-1.649,1.259-2.18,2.18C6.237,9.898,5.972,10.906,5.972,12c0,1.001,0.234,1.938,0.703,2.813
	l-1.453,1.453C4.378,14.953,3.957,13.531,3.957,12c0-1.437,0.358-2.772,1.078-4.008c0.718-1.234,1.694-2.21,2.93-2.93
	c1.233-0.719,2.569-1.078,4.008-1.078v-3l3.985,4.031L11.972,9V6C10.877,6,9.87,6.266,8.949,6.797z M19.988,12
	c0,1.438-0.361,2.773-1.078,4.008c-0.721,1.235-1.697,2.211-2.93,2.93c-1.236,0.72-2.572,1.078-4.008,1.078v3l-3.984-4.031
	L11.972,15v3c1.092,0,2.1-0.265,3.024-0.797c0.92-0.531,1.646-1.258,2.18-2.18c0.529-0.921,0.797-1.929,0.797-3.023
	c0-0.968-0.234-1.905-0.703-2.813l1.453-1.453C19.566,9.047,19.988,10.47,19.988,12z"/>
</svg>
