<?xml version="1.0" encoding="utf-8"?>
<!-- Generator: Adobe Illustrator 15.0.0, SVG Export Plug-In . SVG Version: 6.00 Build 0)  -->
<!DOCTYPE svg PUBLIC "-//W3C//DTD SVG 1.1//EN" "http://www.w3.org/Graphics/SVG/1.1/DTD/svg11.dtd">
<svg version="1.1" xmlns="http://www.w3.org/2000/svg" xmlns:xlink="http://www.w3.org/1999/xlink" x="0px" y="0px"
	 width="19.969px" height="18px" viewBox="1.988 0.984 19.969 18" enable-background="new 1.988 0.984 19.969 18"
	 xml:space="preserve">
<path d="M21.957,3.984V6h-2.109c-0.251,0.875-0.727,1.594-1.43,2.156S16.901,9,15.98,9c-0.923,0-1.743-0.281-2.461-0.844
	C12.8,7.594,12.331,6.875,12.113,6H1.988V3.984h10.125C12.331,3.11,12.8,2.391,13.52,1.828c0.718-0.563,1.538-0.844,2.461-0.844
	c0.921,0,1.734,0.281,2.438,0.844s1.179,1.282,1.43,2.156H21.957z M10.426,11.813c0.718,0.563,1.187,1.282,1.406,2.156h10.125v2.016
	H11.832c-0.22,0.875-0.688,1.594-1.406,2.156c-0.72,0.563-1.54,0.844-2.461,0.844c-0.923,0-1.734-0.281-2.438-0.844
	s-1.181-1.281-1.43-2.156H1.988v-2.016h2.109c0.249-0.874,0.727-1.594,1.43-2.156s1.523-0.844,2.461-0.844
	C8.894,10.969,9.706,11.25,10.426,11.813z M9.371,16.383c0.39-0.391,0.586-0.859,0.586-1.406c0-0.546-0.196-1.015-0.586-1.406
	c-0.392-0.391-0.86-0.586-1.406-0.586c-0.548,0-1.017,0.195-1.406,0.586c-0.392,0.392-0.586,0.86-0.586,1.406
	c0,0.547,0.194,1.016,0.586,1.406c0.39,0.392,0.867,0.586,1.43,0.586C8.519,16.969,8.979,16.774,9.371,16.383z M17.387,6.398
	c0.39-0.391,0.586-0.859,0.586-1.406c0-0.546-0.196-1.015-0.586-1.406C16.995,3.195,16.526,3,15.98,3
	c-0.548,0-1.017,0.195-1.406,0.586c-0.392,0.392-0.586,0.86-0.586,1.406c0,0.547,0.194,1.016,0.586,1.406
	c0.39,0.392,0.851,0.586,1.383,0.586C16.52,6.984,16.995,6.79,17.387,6.398z"/>
</svg>
