<?xml version="1.0" encoding="utf-8"?>
<!-- Generator: Adobe Illustrator 15.0.0, SVG Export Plug-In . SVG Version: 6.00 Build 0)  -->
<!DOCTYPE svg PUBLIC "-//W3C//DTD SVG 1.1//EN" "http://www.w3.org/Graphics/SVG/1.1/DTD/svg11.dtd">
<svg version="1.1" fill="#ffffff" xmlns="http://www.w3.org/2000/svg" xmlns:xlink="http://www.w3.org/1999/xlink" x="0px" y="0px"
	 width="19.781px" height="19.969px" viewBox="2.081 2.016 19.781 19.969" enable-background="new 2.081 2.016 19.781 19.969"
	 xml:space="preserve">
<path d="M5.69,7.078C4.814,8.234,4.268,9.547,4.05,11.016H2.081c0.188-2.031,0.921-3.813,2.203-5.344L5.69,7.078z M4.097,12.984
	c0.155,1.438,0.687,2.75,1.594,3.938l-1.406,1.406c-1.282-1.563-2.016-3.344-2.203-5.344H4.097z M11.034,4.078
	c-1.47,0.188-2.782,0.734-3.938,1.641l-1.406-1.5c1.562-1.281,3.343-2.016,5.344-2.203V4.078z M7.097,18.375
	c1.187,0.907,2.499,1.453,3.938,1.641v1.969c-2.001-0.219-3.782-0.969-5.344-2.25L7.097,18.375z M17.245,3.469
	c1.296,0.813,2.351,1.859,3.164,3.141c0.812,1.282,1.296,2.688,1.453,4.219c0.188,1.813-0.079,3.532-0.797,5.156
	c-0.72,1.625-1.79,2.961-3.211,4.008c-1.423,1.047-3.04,1.68-4.852,1.898v-2.016c1.843-0.218,3.405-0.977,4.688-2.273
	c1.28-1.296,2.046-2.852,2.297-4.664c0.155-1.437-0.04-2.813-0.586-4.125C18.854,7.5,18.01,6.415,16.87,5.555
	c-1.142-0.859-2.431-1.383-3.867-1.57V2.016C14.533,2.173,15.947,2.656,17.245,3.469z"/>
</svg>
